<?xml version="1.0" encoding="UTF-8"?><svg id="_レイヤー_2" xmlns="http://www.w3.org/2000/svg" viewBox="0 0 193.43 221.21"><defs><style>.cls-1{fill:#e94e63;}.cls-1,.cls-2,.cls-3{stroke-width:0px;}.cls-2{fill:#24b5f5;}.cls-3{fill:#fffdfd;}</style></defs><g id="_サーファー"><path class="cls-2" d="m193.42,221.21l-.05-.04.05.03s-12.68-51.65-70.36-88.73c-45.69-29.38-73.23-39.66-87.97-44.86-5.85-2.06-12.54-1.39-18.53,1.85-2.86,1.55-6.06,3.29-9.17,4.98-7.33,3.98-9.75,13.82-4.81,19.58,10.88,12.67,30.4,33.46,69.16,62.45,54.91,41.07,121.67,44.73,121.67,44.73Z"/><path class="cls-3" d="m89.75,136.36c-2.47,1.76-9.26,22.98-5.8,24.17,7.08,2.45,12.16-19.12,12.77-26.98-4.75-3.03-6.93,2.79-6.97,2.81Z"/><path class="cls-3" d="m54.62,106.04c-.03-.19.12.42.1.44-1.44,1.68-15.44,18.98-12.42,19.41,8.11,1.15,19.93-11.15,19.91-18.76,0-.28-.21-.55-.26-.76-2.46.01-4.88-.2-7.32-.33Z"/><path class="cls-3" d="m106.58,99.63c-9.11,9.58-13.35,19.51-23.99,27.35,6.86,1.97,5.62,3.33,13.41,6.18,3.07,1.98.47,6.91-2.12,9.53-13.15-2.58-26.17-2.83-27.65-12.63-1.49-9.8,28.4-42.9,17.07-41.78-11.33,1.11-14.46,12.43-29.55,19.8-2.84,1.39-4.28.14,5.7-7.37,3.23,3.04,6.46,3.41,3.61,11.24-35.42,15.26-28.71-3.72-16.15-18.51,12.56-14.8,25.08-23.79,39.09-38.25,12.39-2.45,22.11-2.11,27.27,10.65,4.66,11.54,1.89,24.78-6.68,33.8Z"/><path class="cls-1" d="m108.83,99.5c-7.13,12.78-17.97,26.4-17.97,26.4,0,0-18.17-3.89-19.66-13.69-1.49-9.8,4.96-11.67,12.09-23.92-7.14,10.27-15.49,19.75-15.49,19.75,0,0-19.37-2.36-20.9-14.6,12.56-14.8,25.08-23.79,39.09-38.25,12.39-2.45,22.11-2.11,27.27,10.65,4.66,11.54,1.62,22.8-4.44,33.66Z"/><path class="cls-3" d="m59.03,20.98l-1.24,4.94c-.31.59,2.6,5.12,2.74,5.77.86,3.85,4.82,13.92,12.88,20.32,9.12,5.41,3.93,2.84,3.93,2.84,0,0,11.37,31.66,27.92,27.44,8.12-2.07,11.87-4.96,8.75-18.41-3.12-13.45-9.37-31.02-9.37-31.02l-45.61-11.9Z"/><polygon class="cls-3" points="71.35 38.31 28.44 46.93 27.73 39.52 66.93 25.45 71.35 38.31"/><path class="cls-3" d="m115.53,50.52s-1.03-14.15-8.59-17.64c-17.68-8.16-41.24-19.27-43.61-17.15-.7.63-1.5,3.16-2.02,5.06-.38,1.4.2,2.92,1.34,3.48,8.53,4.13,52.96,26.97,52.87,26.26Z"/><path class="cls-3" d="m77.56,26.55l-8.26-2.97c1.08-2.82,3.38-8.7,3.38-8.7l7.58,2.55s-1.28,5.96-2.59,8.93c-.03.07-.08.12-.11.19Z"/><path class="cls-1" d="m59.4,19.39c.89,4.87,3.37,9.61,7.05,12.83.32.28.66.56,1.08.64.47.09.95-.09,1.4-.27,5.2-2.13,11.71-3.58,15.75-7.77,2.58-2.68,5.67-10.11,5.85-13.81.11-2.31-1.19-4.75-3.36-5.56-5.7-2.11-9.67-6.58-16.39-5.19-9.78,2.02-12.92,10.76-11.38,19.12Z"/><path class="cls-3" d="m78.61,9.16c5,1,8.6,5.38,8.62,10.48l.36,13.24c-1.85,8.16-11.32,10.04-21.48-1.68l-.34-11.48c5.35-8.14,6.18-11.9,12.84-10.56h0Z"/><path class="cls-3" d="m61.88,23.03c1.03,1.88,2.85,2.87,4.06,2.21,1.21-.66,1.36-2.73.33-4.61-1.03-1.88-2.85-2.87-4.06-2.21-1.21.66-1.36,2.73-.33,4.61Z"/><path class="cls-3" d="m157.21,103.03s9.96,12.47,7.4,15.9c-2.56,3.43-10.64-8.21-10.64-8.21l-2.09,5.83-2.49-12.21,7.81-1.31Z"/><polygon class="cls-3" points="105.58 33.76 138.55 66.75 158.13 105.9 151.17 108.53 127.31 74.39 106.59 56.37 97.42 42.51 105.58 33.76"/><path class="cls-3" d="m27.73,39.52s-13.28-3.22-15.15,0c-1.87,3.22,10.2,5.72,10.2,5.72l-3.96,3.66,10.63-2.18-1.72-7.2Z"/></g></svg>