<?xml version="1.0" encoding="utf-8"?>
<!-- Generator: Adobe Illustrator 28.0.0, SVG Export Plug-In . SVG Version: 6.00 Build 0)  -->
<svg version="1.1" xmlns="http://www.w3.org/2000/svg" xmlns:xlink="http://www.w3.org/1999/xlink" x="0px" y="0px"
	 viewBox="0 0 640 480" style="enable-background:new 0 0 640 480;" xml:space="preserve">
<style type="text/css">
	.st0{display:none;}
	.st1{display:inline;fill-rule:evenodd;clip-rule:evenodd;fill:none;stroke:#C6C6C6;stroke-miterlimit:10;}
	.st2{fill-rule:evenodd;clip-rule:evenodd;fill:none;stroke:#0008FC;stroke-miterlimit:10;}
</style>
<g id="レイヤー_1" class="st0">
	<path class="st1" d="M383.13,200.06c2.67,3.07,3.36,5.76,5.82,8.42c5.49,5.94,23.62,21.62,26.77,25.31
		c2.99,3.51,5.52,7.94,8.78,10.68c3.12,2.63,3.16,0.53,6.43,2.91c3.28,2.38,7.36,4.67,8.48,7.51c1.08,2.72,0.54,4.69,0.86,6.32
		c0.26,1.38,2.96,2.22,4.02,1.29c1.31-1.15,0.35-6.16,0.83-5.98c0.48,0.18,1.45,5.35,2.05,7.04c0.52,1.46,3.74,2.2,4.56,0.89
		c1.22-1.97,0.01-7.09,0.15-10.86c0.13-3.36-1.03-5.38-2.47-8.42c-1.73-3.66-5.39-7.44-9.31-10.42c-4.4-3.34-9.18-3.11-13-7.55
		c-8.6-10-8.59-20.59-18.82-33.82c-2.18-2.82-0.93-0.83-5.79-5.68c-0.52-0.52-4.73-4.37-5.5-4.82"/>
	<path class="st1" d="M265.87,302.28C265.87,302.28,265.87,302.28,265.87,302.28c-0.18,0.15-0.36,0.31-0.52,0.46
		c-5.93,5.51-7.06,19.08-18.48,28.16c-9.5,7.56-43.17,21.41-56.84,35.22c-0.03,2.39-1.71,5.18-2.83,7.38
		c-1.39,2.71-2.7,6.55-5.08,7.47c-2.37,0.92-5.42-1.45-8.04-2.69c-3.03-1.44-7.08-4.73-10.83-6.13c-3.95-1.48-12.94-2.45-17.52-5.34
		c-2.24-1.41-5.04-4.04-4.51-5.66c0.83-2.55,1.85-6.9,4.14-8.84c2.29-1.94,6.88-1.04,10.44-0.63c4.04,0.46,7.26,4.35,11.78,5.06
		c3.66,0.58,7.81-0.13,11.23,0.33c0.32-0.33,0.68-0.61,1.06-0.83c5.85-3.38,19.31-17.92,29.98-29.51c-1.53-0.53-2.84-1.24-3.7-2.1
		c-2.31-2.33-3.5-8.47-1.77-10.93c1.72-2.46,8.17-2.85,12.12-3.85c3.8-0.97,8.86-0.53,11.56-2.18c0.62-0.38,1.05-0.98,1.39-1.68
		c-0.7-2.05-1.52-4.03-2.4-5.96c-10.68,1.46-22.15,3.56-33.75,6.7c-22.92,6.2-44.99,15.47-62.53,29.29
		c-17.53,13.81-30.38,34.46-37.37,48.55c-4.64,9.36-7.06,22.26-3.09,28.54c3.97,6.28,15.61,9.79,26.07,9.32
		c15.69-0.71,45.02-3.58,61.88-12.08c16.11-8.12,30.17-19.48,42.51-31.72c25.04-24.84,41.71-41.07,55.63-57.89
		c2.56-3.1,1.06-8.86-4.87-14.79c-0.33,0.1,7.49,11.88,7.49,11.88"/>
	<path class="st1" d="M279.01,317.82c16.77-9.37,35.8-37.42,52.94-38.28c2.98,4.92-7.3,21.23,2.51,23.01
		c34.85-2.71,12.06-61.04,53.85-38.86c5.9,16.62-21.72,5.06-10.89,28.09c25.4,13.5,23.28-29.64,53.41-2.5
		c11.33,7.97,14.74,27.61-3.49,18.62c3.5-8.44-10.7-9.8-15.61-8.92c-3.49,19.24,27.03,9.39,34.13,19.28
		c1.54-0.65,3.85-6.88,4.27-10.21c-7.33-13.06-4.63-16.37,8.88-16.58c-6.65-13.35,10.53-15.75,15.92-6.28
		c-9.6,16.26,4.97,4.91,13.22,9.05c0.8,6.55,5.04,19.85,8.05,25.3c-9.19,7.41-13.46,0.9-14.99-8.04
		c-23.01,1.66,8.3,15.77,11.24,23.09"/>
	<path class="st1" d="M277.2,319.37"/>
	<path class="st1" d="M243.93,359.1c5.24-4.11,11.68-9.29,15.04-10.76c3.76-1.63,9.29,2.88,12.6,0.62
		c6.22-4.23,16.88-20.93,24.71-25.98c6.11-3.94,14.87-2.72,22.25-4.31c10.14-2.18,25.31-8.11,38.6-8.8
		c14.19-0.74,33.7,2.11,46.52,4.35c10.49,1.83,20.12,6.51,30.42,9.06c14.54,3.59,49.37,12.72,56.84,12.52
		c1.32-0.04,1.73-0.48,1.55-1.19"/>
	<path class="st1" d="M155.95,294.27c0.83-11.99,4.56-20.68-10.9-23.1c-7.57,8.51-2.18,23.77-18.7-0.11
		c3.93-19.92-3.27-19.33-12.25-31.19c0.91-8.64,6.07-29.63-2.54-33.56c-22.06,17.7-25.92-30.41-24.75-43.96
		c12.18-24.09,49.6-30.46,74.8-26.41c46.96,26.54,57.97,24.02,98.47,12.26"/>
	<path class="st1" d="M544.77,359.1c8.38-20.33,16.92-17.15,22.66-7.27c0.01-0.03,8.01-1.82,8.04-1.83
		c24.62-10.44,17.56,35.09,9.45,56.92c-7.01,18.86-31.07,41.37-42.89,51.18c-10.64,8.83-89.96,25.57-124.45,23.05
		c-28.06-2.05-125.99-6.97-156.4-5.1c-32.12,1.97-157.31,4.14-189.23,5.95c-12.51,0.71-30.86-47.08-33.61-63.19
		c-5.89-34.46-17.5-51.06-7.16-59.93"/>
	<path class="st1" d="M282.76,211.36c-15.9-7.24-34.42,0.57-43.27,10.42c-5.21-1.77,7.86-13.66,9.78-15.03
		c-13.11-18-25.43,4.73-28.44,16.51c-18.15,26.67-11.57,1.98-26.16,14.57c5.41,15.48,2.38,14.87-9.52,24.26
		c3.91,34.97-3.77,19.19-27.75,34.19"/>
	<path class="st1" d="M449.82,267.31c0.74,1.56,1.7,3.05,2.91,4.43c16.63,11.45,20.49,2.97,24.71-11.36
		c19.93-2.06,28.76,15.4,9.42,25.93c1.8,16.76,22.07,15.36,22.98-2.16c0.79-5.5,6,3.93,6.25,10.2c0.14,3.42-7.12,10.55-6.48,13.44
		c1.98,9.79,9.93,20.36-6.3,11.55c-12.5,30.4,23.93,26.04,24.38-17.64c2.83,7.55,14.89,29.31,8.74,38.4
		c-23.43-2.81-8.35,20.43,8.28,12.59c6.42-6.16,13.49-79.85,20.74-31.24c11.26,15.67,18.77,2.98,12.99-11.96
		c-7.41-9.47-31.91-15.27-13.37-26.91c5.75,1.02,14.16,0.9,19.84,0c4.09,9.37,1.82,8.66,11.3,12.35
		c-21.82,38.85,61.47,23.67-20.44-39.63c4.27-6.82,28.99,29.6,27.14,5.54c-19.89-17.28-28.18-47.58-39.97-73.86
		c-19.83-30.25-52.28-59.55-52.8-92.36c-10.04-6.91-43.62-5.24-56.1-15.44c-16.45-37.66-19.53-62.83-68.85-70.69
		c-52.26,25.52-115.35-20.62-170.62-2.65C178.61,39.7,181.3,33,133.92,38.14c-26.6,15.84-49.28,38.56-46.74,69.49
		c-10.71,30.6-47.24,61.99-37.46,96.16c5.99,25.36-11.43,14.08-5.07,27.39c17.47,1.16,5.24,15.97-5.69,18.18
		c-6.44,16.29,3.42,12.82,12.96,10.38c0.55,1.52-8.67,8.43-10.25,11.68c10.09,33.78-6.34,16.15-3.73,41.41
		c6.18,6.98,16.94,12.34,8.7,22.41c-12.79-3.47-19.91,17.44-5.79,21.18c9.01-3.37,5.78-8.71,1.75-13.45
		c20.72-20.28,0.26,21.34,15.65,23.56c2.18-0.85,4.24-14.65,6.23-15.17c1.67,4.69,0.71,17.34,11.44,12.72
		c22.68-4.94,4.94,3.07,0.62,8.43c17.04,7.59,2.1,19.81,10.09,46.71l10.34,7.02l19.41,0.34l13.62,0.34l25.88-3.06l29.62-9.87
		l25.88-20.09l33.03-34.39"/>
	<path class="st1" d="M383.13,200.06c5.31,9.19-1.44,17.1-3.54,27.32c17.06,11.05,21.21,2.03,7.16,20.95
		c5.48,17.86,56.35,34.94,63.07,18.98"/>
	<path class="st1" d="M270.15,304.69c-0.33,0.1,0.37,0.21,0.1,0.26"/>
	<path class="st1" d="M282.76,211.36c-1.31,1.09-2.65,2.14-4.26,2.47c-4.21,0.86-10.96,0.38-14.83,1.82
		c-5.4,2.02-13.45,6.07-18.27,8.62c-3.04,1.6-10.74,1.72-12.02,3.66c-1.27,1.94,3.68,16.89,4.89,19.71
		c1.93,4.49,7.48,10.51,10.79,13.49c3.23,2.9,21.04-4.88,23.49-3.61c1.97,1.02,1.11,4.02-0.07,5.16
		c-3.33,3.18-16.53,8.81-18.35,12.87c-0.54,1.21,2.24,4.9,4.25,9.99c3.43,8.71,7.6,20.05,10.85,19.41
		c6.53-1.29,31.84-17.15,42.35-24.94c3.35-2.49,7.76-3.53,14.47-11.3l0,0c5.57-6.45,7.04-14.07,8.5-18.49
		c0.78-2.37,2.36-6.65,2.87-10.67"/>
	<path class="st1" d="M241.06,296.28c0.6-9.36,4.33-17.23,3.45-22.29c-0.74-4.23-3.22-8.23-6.33-11.29
		c3.33-0.19,7.16-0.74,11.1-1.46c-0.06-0.04-0.13-0.08-0.19-0.13c-3.31-2.98-8.87-9-10.79-13.49c-1.01-2.35-4.61-13.1-5.05-17.75
		c-2.81,1.53-5.25,2.8-7.04,3.5c-3.33,1.28-6.98,0.94-10.15,2.57c-3.28,1.69-8.14,9.14-8.06,13.01c0.05,2.26,1.17,7.06,2.8,10.48
		c1.21,5.92,2.88,13.17,5.09,18.74c3.43,8.69,10.01,17.35,13.57,27.82c-0.33,0.7-0.76,1.3-1.39,1.68c-2.7,1.65-7.76,1.21-11.56,2.18
		c-3.95,1-10.4,1.39-12.12,3.85c-1.73,2.46-0.53,8.61,1.77,10.93c0.56,0.56,1.31,1.06,2.18,1.48"/>
	<path class="st1" d="M258.41,285.52c-1.48-3.76-3.38-6.76-4.06-8.55c-3.39,3.49-7.71,8.21-8.95,10.47
		c-1.87,3.4-1.96,9.16-5.2,11.66c-5.45,4.21-12.97,9.73-17.39,13.91c-7.52,7.11-34.02,38.08-42.93,43.23
		c-0.38,0.22-0.74,0.5-1.06,0.83c-3.42-0.46-7.58,0.24-11.23-0.33c-4.51-0.71-7.73-4.6-11.78-5.06c-3.56-0.4-8.14-1.31-10.44,0.63
		c-2.29,1.94-3.31,6.3-4.14,8.84c-0.53,1.62,2.27,4.25,4.51,5.66c4.58,2.89,13.56,3.86,17.52,5.34c3.75,1.4,7.8,4.7,10.83,6.13
		c2.62,1.24,5.67,3.61,8.04,2.69c2.37-0.91,3.69-4.76,5.08-7.47c1.12-2.2,2.8-4.98,2.83-7.38c13.68-13.81,47.34-27.67,56.84-35.22
		c11.42-9.08,12.55-22.65,18.48-28.16c0.16-0.15,0.35-0.3,0.52-0.46C263.39,298.51,260.73,291.41,258.41,285.52z"/>
	<path class="st1" d="M393.24,180.71c-4.52-2.94-10.21-8.12-14.73-11.97c-3.61-3.08-4.98-8.4-8.85-11.14
		c-3.27-2.32-10.76-8.22-15.99-8.92c-1.06-0.52-2.15-1-3.23-1.45"/>
	<path class="st1" d="M304.75,135.93c-1.45-0.08-8.26-1.49-9.82-1.11c-5.08-1.4-11.04-3.59-16.54,2.32
		c-2.57,2.76-7.82,5.36-13.04,8.24c-5.22,2.88,3.73,21.42,7.14,20.17c3.51-1.28,7.22-2.4,10.38-3.26c0.01,3.11,0.19,6.21,0.41,8.89
		c0.5,6.05,1.4,15.73,1.95,21.78c0.67,7.34,0.63,12.81-0.58,18.94c-0.76,3.85-5.61,6.67-5.09,10.59c0.58,4.41,3.02,13.9,9.15,16.07
		c8.63,3.06,33.58,4.98,42.67,2.27c7.47-2.23,6.69-9.12,9.88-15.68c4.58-9.41,11.86-23.2,16.03-34.23
		c6.9,1.28,16.64,3.96,21.06,6.95c3.65,2.47,11.62-2.91,15.01-7.54c2.52-3.43,5.05-6.25,2.76-7.75"/>
	<path class="st1" d="M264.62,146.01c-4.88,2.61-8.56,3.75-11.19,4.99c-3.11,1.46-6.65,2.74-9.81,4.1
		c-3.95,1.69-6.6,1.96-10.69,5.54c-7.52,6.61-14.35,18.37-20.83,25.34c-0.75,0.81-1.46,1.84-1.78,2.98c-1.23,0.25-2.4,0.63-3.33,1.1
		c-2.85,1.46-4.89,1.37-6.78,4.91c-1.74,3.26-2.55,7.15-2.67,8.96c-0.05,0.71,1.55,0.38,1.8,0.85s-0.58,3.03-0.24,3.58
		c0.34,0.55,1.74,1.4,2.36,0.75c0.73-0.75,1.99-5.82,2.09-5.76c0.1,0.07-1.06,5.09-0.6,6.11c0.45,1.02,2.17,1.4,2.99,0.63
		c0.82-0.77,0.57-3.51,1.02-5.23c0.5-1.91,3.34-5.88,3.27-5.17c-0.07,0.81-0.33,1.89-0.97,3.73c-0.9,2.61-0.59,5.51-0.46,6.6
		c0.19,1.48,2.71,1.77,3.55,0.53c0.65-0.96,1-3.56,1.64-6.03c0.75-2.92,1.78-5.75,2.41-6.8c0.54-0.9,2.37,0.32,2.9,1.22
		c1.55,2.61-2.09,3.58-1.58,4.74c0.51,1.16,1.34,2.64,2.37,1.96c1.03-0.69,4.34-3.3,4.66-5.05c0.32-1.74-1.32-3.18-1.51-4.94
		c-0.13-1.27-0.5-2.46-1.11-3.58c0.35-0.34,0.73-0.74,1.14-1.2c5.4-6.05,12.34-9.77,17.19-12.91c6.77-4.38,6.08-7.59,9.57-9.99
		c3.49-2.4,8.35,1.12,12.88,0.17c2.47-0.52,5.49-1.54,8.62-2.68C267.91,163.88,261.43,149.89,264.62,146.01z"/>
	<path class="st1" d="M350.45,130.77c-4.25-1.48-22.92-0.07-25.84,3.19c-2.02,2.26-3.82,3.77-5.49,4.56
		c-0.6,2.06-1.29,4.41-1.88,4.5c-0.33,0.05-0.88-1.75-1.56-3.88c-3.8-0.1-9.18-1.34-10.93-3.21c-0.38,3.65,0.27,9.95,1.45,12.06
		c1.23,2.19,6.45-0.55,7.71,1.49c1.26,2.04-0.73,5.79,2.32,7.96c4.66,3.31,15.56,11.2,21.33,8.11c5.46-2.93,9.62-13.26,11.01-19.27
		c0.93-4.02,1.72-9.75,1.65-13.03C350.22,132.59,350.33,131.69,350.45,130.77z"/>
	<path class="st1" d="M339.43,104.16c-4.76-2.34-11.75-3.44-16.76-2.99c-5.45,0.48-10.36,3.11-13.15,5.96
		c-2.57,2.62-3.79,6.45-4.57,9.63c-0.76,3.1-0.48,6.26-0.22,9.38c0.28,3.21-2.01,7.63,0.02,9.79c1.94,2.08,8.35,3.38,12.12,3.21
		c2.27-0.11,4.78-1.86,7.74-5.17c2.95-3.3,22.02-4.71,25.98-3.14c0.7,0.28,0.64-9.84-0.08-12.18
		C349.34,114.85,345.1,106.95,339.43,104.16L339.43,104.16z"/>
</g>
<g id="レイヤー_3">
</g>
<g id="レイヤー_4">
	<path class="st2" d="M284.86,211.08c1.15-11.76,0.72-23.63-0.94-35.32c-0.62-4.34-1.4-8.75-0.63-13.06
		c-3.32,1.02-6.63,2.04-9.95,3.06c-0.36,0.11-0.77,0.22-1.1,0.03c-0.27-0.15-0.41-0.46-0.53-0.75c-1.29-3.07-2.59-6.14-3.88-9.21
		c-0.81-1.92-2.13-5.26-1.65-7.29c0.56-2.36,2.73-2.72,4.91-3.78c2.18-1.06,3.81-1.58,5.61-3.2c1.01-0.91,3.03-2.3,4-3.25
		c2.31-2.26,5.74-3.3,8.91-2.71c1.46,0.27,2.86,0.86,4.33,1.01c2.47,0.24,7.62-0.66,8.83,1.51c1.65,2.97,0.39,4.04,0.71,6.73
		c0.88,7.43,4.68,14.1,9.42,19.89c2.87,3.51,6.54,6.61,10.96,7.63c6.04,1.4,12.43-1.4,16.93-5.66c2.65-2.5,4.25-4.57,5.97-7.78
		c2.65-4.93,3.49-11.95,3.06-16.88c-1.42,6.5-3.37,10.84-6.58,16.55c-1.15,2.04-2.38,4.17-4.37,5.41c-2.79,1.73-6.43,1.29-9.5,0.12
		s-5.87-3-8.99-3.99c-1.39-0.44-2.88-0.74-4.01-1.65c-2.46-1.98-2.15-5.7-2.62-8.82c-0.16-1.07-0.83-2.38-1.89-2.18
		c-0.49,0.09-0.85,0.5-1.27,0.77c-1.36,0.86-3.27,0.1-4.2-1.22c-0.93-1.31-1.13-2.99-1.3-4.59c-0.23-2.12-0.45-4.31,0.19-6.35
		c2.05-2.51,5.5-2.96,7.72-0.5c0.39,0.43,1.14,1.76,1.38,2.28c1.03,2.29,0.83,3.91,2.3,5.16c-0.44-2.43,0.03-5.08,1.39-7.19
		c2.33-0.45,4.88,1.01,5.69,3.24c0.22-3.78-0.5-7.61-2.07-11.05c3.4,2.52,5.98,6.14,7.24,10.18c1.58-3.64,1.74-7.88,0.44-11.64
		c2.02,3.36,4.7,6.31,7.84,8.64c-0.09-3.61-0.85-7.2-2.24-10.53c3.72,2.69,7.03,5.93,9.8,9.59c1.66-0.11,1.91-2.47,1.49-4.08
		c-0.73-2.82-1.95-5.51-3.6-7.91c4.45,3.35,6.32,9.05,7.94,14.38c2.17-8.74,0.58-18.24-4.13-25.92c-2.82-4.59-8.27-8.75-13.16-11.03
		c-6.25-2.92-14.29-1.35-18.99,3.7c-0.31,0.33-0.61,0.68-0.99,0.94c-0.68,0.46-1.52,0.56-2.31,0.77c-4.03,1.03-6.92,4.81-7.93,8.85
		c-1.01,4.03-0.45,8.29,0.45,12.35c0.66,2.99,1.44,6.31-0.1,8.96l-2.47,0.05c-2.61-0.41-5.55-0.51-8.7-1.23
		c-4.07-0.94-5.28-1.06-7.15-0.75c-2.6,0.42-4.16,1.63-5.12,2.25c-2.13,1.39-1.88,1.91-4.37,3.81c-2.92,2.22-6,3.6-6,3.6
		c-2.13,0.95-3.17,1.09-4.29,2.34c-0.28,0.31-1.29,1.46-1.57,3.16c-0.3,1.81,0.31,3.6,1.33,6.99c0.93,3.06,3.52,6.32,3.98,9
		c0.35,2.01-0.18,1.72-0.86,1.98c-4.88,1.85-6.08,1.71-7.64,1.78c-4.68,0.2-6.34-1.13-9.34-0.04c-3.2,1.16-3.25,3.37-7.05,7.17
		c-0.9,0.9-1.36,1.23-11.46,7.45c-6.66,4.1-9.88,6.05-10.62,9.21c-0.58,2.45-0.22,4.27-0.22,4.27c0.34,1.73,1,2.14,1.14,3.87
		c0.07,0.81,0.2,2.47-0.87,3.77c-0.84,1.02-2.48,1.91-3.52,1.32c-0.84-0.48-0.94-1.76-0.96-2.04c-0.11-1.45,0.73-1.83,0.91-3.62
		c0.06-0.65,0.21-2.09-0.57-2.73c-0.8-0.66-2.37-0.31-3.41,0.34c-2.84,1.76-4.08,7.17-3.87,11.04c0.05,0.82,0.21,2.48-0.64,2.99
		c-0.48,0.29-1.18,0.14-1.64-0.14c-0.95-0.59-1.25-2.02-1.14-5.01c0.18-4.62,1.16-7.81,1.02-7.85c-0.14-0.04-1.82,2.97-2.39,7.28
		c-0.33,2.54-0.16,4.59-1.14,4.95c-0.52,0.19-1.17-0.18-1.54-0.56c-0.82-0.83-0.46-2.37-0.3-3.11c0.99-4.35,1.9-9.41,1.73-9.47
		c-0.13-0.04-1.23,2.52-2.39,5.92c-0.44,1.3-0.82,2.56-1.14,3.75c-0.43,0.73-1.2,1.93-1.64,1.79c-0.52-0.17-0.27-2.08-0.27-2.86
		c0.03-5.31,3-9.35,2.93-9.39c-0.04-0.02-0.87,1.29-1.71,3.3c-0.57,1.37-0.56,1.68-1.02,2.5c-0.65,1.16-1.92,2.81-2.39,2.62
		c-0.88-0.37-0.31-7.25,4-11.42c3.18-3.08,6.92-3.96,6.92-3.96c0.92-0.22,1.46-0.23,2.3-0.66c2.52-1.29,3.4-4.11,3.85-5.34
		c0.19-0.51,2.36-3.65,6.72-9.91c4.77-6.86,7.61-10.95,12.51-14.22c2.85-1.9,5.31-2.74,10.22-4.4c9.63-3.25,16.38-3.28,18.53-7.84
		c0.25-0.53,0.45-0.97,0.26-1.31c-1.24-2.15-14.99,5.71-29.92,8.87c-13.54,2.87-24.63,1.17-29.69,0.34
		c-19.73-3.22-33.96-13.24-41.75-19.91c-36.46,0.74-48.24,4.55-48.24,4.55c-4.53,1.47-25.3,8.18-26.51,19.91
		c-0.05,0.47-0.05,0.77,0,2.16c0.65,19.51,1.21,29.38,5.69,38.32c4.18,8.35,8.02,9.6,9.73,9.91c3.05,0.54,8.15-1.14,9.86-3.8
		c0.59-0.93,4.96,4.3,4.88,11.3c-0.12,11.21-1.37,9.59-2.34,22.26c2.98,5.53,10.68,8.26,12.31,15.27
		c1.41,6.07,1.16,11.23-0.06,15.92c-0.14,0.54,5.02,6.92,7.07,9.43c2.27,2.79,4.21,3.37,5.3,3.08c2.64-0.69,2.45-8.13,6.34-12.41
		c0.5-0.55,8.44,0.76,10.78,5.78c1.3,2.78,1.03,6.31,0.48,13.37c-0.3,3.89-0.66,5.14,0.18,5.81c1.75,1.4,5.58-2.24,13.22-5.76
		c9.91-4.56,12.02-2.34,14.42-5.65c4.45-6.13,1.02-22.64,1.02-22.64s9.18-4.65,11.49-10.33c1.26-3.1,0.06-7.29-0.69-9.93
		c-0.14-0.51-1.27-4-1.27-4s4.08-4.51,7.66-3.84c2.76,0.52,3.17,2.25,5.46,2.27c1.84,0.02,3.63-0.89,5.86-3.58
		c3.37-4.07,6.44-6.51,8.41-13.11c1.85-6.19,7.51-15.64,12.48-18.22c3.08-1.6,5.87-1.8,8.54-0.33c2.2,1.21,6.21,5.72,6.21,5.72
		s-9.94,7.98-11.1,11.68c-0.4,1.28,0.17,4.48,1.32,3.34c2.59-2.57,8.75-8.8,21.21-12.2c5.85-1.6,8.77-1.36,14.54-0.55
		c4.47,0.62,6.71,1.32,8.04,2.11c1.54,0.92,2.15,1.83,2.21,2.72c0.05,0.91-0.36,1.6-0.82,2.32c-1.82,2.85-2.27,2.98-2.72,3.95
		c-0.78,1.66-0.41,3.29,0.14,5.72c0.55,2.44,1.53,4.14,2.45,5.72c1.31,2.24,1.96,3.36,3.27,4.36c1.44,1.1,2.84,1.43,6.81,2.04
		c5.38,0.83,8.04,1.09,8.04,1.09c6.58,0.64,9.87,0.96,14.17,1.09c0,0,3.25,0.1,8.45-0.14c2.83-0.13,4.65-0.29,6.81-1.09
		c1.62-0.6,3.5-1.97,4.1-1.19c0.89,1.15-4.82,3.12-4.82,3.12c-2.16,0.5-4.78,1.5-13.47,1.3c-7.45-0.17-13.12-0.89-24.46-2.31
		c-1.79-0.23-4.3-0.57-6.76-2.32c-2.99-2.13-4.22-5.13-5.22-7.56c-1.2-2.91-2.53-6.16-1.61-9.76c0.82-3.2,4.97-5.97,2.92-7.15
		c-1.26-0.73-4.96,0.91-4.96,0.91c-3.69,0.92-8.22,0.39-13.02,1.36c-5.84,1.18-7.91,3.25-17.71,8.08c-3.24,0.78-6.28,2.5-9.6,2.83
		c-1,0.1-3.38,0.26-4.08,1.7c-0.36,0.73,3.14,4.83,3.14,7.58c0,4.51,0.78,6.22,1.72,8.59c0.91,2.3,2.17,5.49,4.93,8.59
		c1.87,2.11,7.1,6.15,4.31,8.88c-0.95,0.93-4.05,0.88-6.47,0.91c-0.54,0.01-1.27,0-1.95-0.01c-1.61-0.02-2.09-0.22-2.19-0.04
		c-0.22,0.43,2.3,1.59,4.23,3.74c2.63,2.92,3.13,6.48,3.33,7.95c0.44,3.18-0.16,5.61-0.86,8.4c-1.12,4.49-4.14,12.49-2.45,12.94
		c2.24,0.59,4.56-6.78,6.02-9.08c1.04-1.64,6.53-8.49,8.49-6.69c2.5,2.29,4.24,9.44,5.46,12.54c1.12,2.83,4.47,9.4,7.36,10.55
		c1.64,0.65,5.41,0.18,6.22-0.21c7.06-3.45,10.75-6.06,13.19-7.2c5.48-2.56,4.75-3.43,18.44-11.61c7.89-4.71,10.31-6.69,14.51-9.82
		c6.78-5.06,9.87-12.19,10.42-13.69c1.58-4.26,5.03-12.06,6.14-20.23c0.47-3.5,0.06-6.28,2.49-13.89c0.48-1.49,1-2.73,2.49-5.59
		c4.57-8.79,6-9.54,8.22-14.24c3.86-8.18,3.85-15.08,6.71-15.33c0.25-0.02,1.37,0.23,3.59,0.74c1.71,0.39,3.1,0.74,3.49,0.85
		c5.7,1.5,8.67,5.38,14.82,5.77c0.86,0.05,2.33,0.14,4.16-0.32c3.83-0.96,6.34-3.59,8.22-5.55c1.91-2,3.31-3.16,4.01-5.11
		c0.55-1.53,0.38-2.35,0.22-2.8c-0.49-1.35-1.88-1.94-2.79-2.37c-2.37-1.12-4.36-2.91-6.56-4.33c-2.3-1.48-5.02-3.22-7.68-6
		c-1.5-1.57-1.12-1.53-4.75-6.14c-2.54-3.23-3.81-4.85-5.16-6.14c-3.15-3-6.31-4.63-7.4-5.16c-4.22-2.06-4.24-2.5-8.93-4.15
		c0,0-2.46-0.1-1.53-1.75c1.17-2.09,6.26,1.85,11.2,3.93c5.3,2.22,8.22,5.83,9.1,6.64c5.39,4.95,4.46,6.39,9.37,11.55
		c3.76,3.94,7.56,5.81,15.44,12.01l2.82,2.05c4.28,3.74,11.83,9.71,16.64,20.66c3.38,7.69,4.76,10.8,7.51,16.22
		c4.2,8.31,6.82,10.42,10.57,13.85c3.13,2.86,9.4,3.49,12.98,7.79c1.56,1.87,2.86,5.19,3.76,8.5c1.7,6.3,1.89,6.93,0.54,7.01
		c-0.37,0.02-0.53-0.83-1.62-3.97c-1.16-3.32-2.66-6.34-2.96-5.77c-0.58,1.09,4.83,12.62,2.34,12.74
		c-1.34,0.06-4.66-13.19-4.99-12.58c-0.31,0.58,1.42,3.79,2.14,7.09c0.68,3.11,0.47,6.04-0.74,6.04c-0.73,0-1.36-5.38-2.1-7.87
		c-0.88-2.95-2.1-5.05-2.92-4.71c-0.79,0.32,1.61,3.07,2.18,7.05c0.47,3.23,1.03,5.77,0.14,6.13c-0.64,0.26-1.89,0.22-2.3-5.16
		c-0.18-2.31-4.62-9.09-6.15-8.95c-1.47,0.14,3.21,7.51,0.84,7.68c-2.44,0.17-5.36-9.86-7.36-10.76c-1.64-0.74-3.67-1.84-6.02-4.43
		c-1.07-1.18-1.82-3.34-3.83-5.09c-4.49-3.9-7.04-7-9.81-9.98c-5.91-6.35-6.38-5.17-12.04-11.04c-7.27-7.54-12.14-15.33-12.59-15.03
		c-0.22,0.15,1.11,2.02,1.58,5.3c0.15,1.06,0.18,2.05,0.19,2.33c0,0,0.04,1.72-0.2,3.45c-0.45,3.21-2.09,6.77-4.16,12.6
		c-1.06,3-1.06,3.28-0.95,3.64c0.76,2.33,4.69,2.63,12.66,6.17c2.08,0.93,2.7,1.3,2.95,2.03c0.63,1.86-1.63,4.51-6.16,9.7
		c-1.81,2.07-2.12,2.28-2.28,3.05c-0.32,1.51,0.15,4.2,7.44,9.89c6.92,5.4,13.25,8.25,15,9.02c9.17,4.05,14.49,6.9,23.11,5.32
		c4.94-0.91,8.83-5.34,16.79-3.88c6.33,1.16,3.82,6.71,11.91,7.56c7.01,0.74,11.29-3.46,13.31-6.82c2.74-4.55,0.91-7.15,3.13-9.03
		c3.54-3.01,11.31,1.05,12.48,1.65c2.32,1.21,5.5,2.87,6.94,6.56c1.36,3.47,0.37,6.67,0.07,7.62c-1.45,4.5-5.3,7.02-5.94,7.44
		c-2.35,1.5-3.82,1.43-4.12,2.66c-0.31,1.26,1.05,2.67,3.77,5.42c2.04,2.07,3.06,3.1,4.41,3.82c1.14,0.61,4.53,2.43,7.89,1.24
		c3.8-1.35,5.36-5.75,5.98-7.51c1.33-3.77,0.74-6.52,1.77-6.77c1.18-0.28,2.89,3.05,3.23,3.75c0.62,1.25,2.55,5.15,1.66,10.14
		c-1.16,6.52-5.63,6.48-5.97,11.38c-0.4,5.75,5.5,9.22,3.66,12.49c-0.67,1.19-2.15,1.95-3.4,2.04c-3.1,0.23-4.85-3.61-6.56-2.98
		c-0.54,0.2-0.89,0.77-1.59,4.58c-0.85,4.58-1.27,6.88-0.89,8.44c0.2,0.79,1.33,4.96,4.54,6.26c5.45,2.2,12.5-5.66,13.47-6.75
		c3.76-4.19,5.09-8.54,6.4-12.82c0.84-2.73,2.51-8.21,2.05-15.26c-0.17-2.6-0.53-4.02-0.2-4.13c0.59-0.19,0.02-1.01,6.31,15.34
		c1.93,5.02,6,18.56,4.72,19.41c-1.94,1.3-5.83,0.48-9.38,1.59c-0.43,0.13-4.18,1.73-4.93,4.19c-0.85,2.79,2.03,5.94,4.29,7.41
		c3.78,2.45,9.58,2.35,11.46,1.99c2.46-0.47,7.71-1.45,9.05-7.09c2.68-11.29,6.12-25.33,7.22-29.74c0.43-1.74,1.93-7.74,4.02-7.76
		c1.18-0.01,2.09,1.88,2.82,3.4c1.76,3.65,1.27,5.56,2.13,9.04c0.48,1.93,1.9,7.69,6.37,9.91c0.44,0.22,3.89,1.87,6.48,0.28
		c2.49-1.52,2.65-5.08,2.78-7.97c0.08-1.79,0.29-6.52-2.62-10.92c-1.85-2.8-3.18-2.78-9.99-7.68c-8.9-6.4-9.38-8.41-9.47-9.48
		c-0.27-3.14,2.18-6.37,4.81-7.72c1.27-0.66,1.81-0.47,7.71-0.66c6.95-0.23,7.18-0.52,8.82-0.07c3.89,1.09,6.54,3.86,7.33,4.68
		c2.61,2.73,2.5,4.33,4.71,5.28c2.8,1.2,5.75-0.19,5.94,0.4c0.17,0.53-2.35,1.01-3.82,3.23c-0.64,0.96-0.76,1.77-1.03,6.69
		c-0.32,5.74-0.24,6.13,0.05,6.66c1.88,3.35,7.53,3.15,8.04,3.12c0.28-0.01,5.59-0.35,8.82-4.71c3.46-4.66,2.03-10.54,1.45-12.94
		c-1.22-5.01-4.74-8.99-11.74-16.76c-4.33-4.81-6.58-7.31-10.29-10.59c-8.7-7.69-15.74-11.12-15-12.94
		c0.42-1.03,3.07-0.85,3.46-0.82c2.88,0.23,4.77,2.14,6.55,3.82c0,0,4.39,4.14,10.65,8.65c6.18,4.46,8.12,4.2,9.04,3.93
		c2.56-0.76,3.7-3.52,3.82-3.82c0.71-1.79,0.87-4.53-0.59-5.88c-0.99-0.92-2.37-0.86-2.94-0.88c-4.71-0.14-9-6.9-10.94-9.95
		c-8.25-12.97-17.33-42.22-30.26-63.35c-1.03-1.69-4.13-5.96-10.34-14.51c-22.82-31.43-29.25-36.57-35.09-50.18
		c-5.78-13.47-7.59-28.28-7.59-28.28s-14.8-5.47-31.61-6.62c-11.72-0.8-23.5-4.64-24.27-8.2c-4.48-20.47-20.94-45.59-27.46-52.75
		c-9.36-10.29-41.4-17.95-41.4-17.95s-1.03,0.53-3.65,1.65c-5.43,2.32-16.82,6.42-33.72,6.24c-18.85-0.2-44.93-5.94-75.64-12.09
		c-32.8-6.57-57.61,1.56-57.61,1.56s-0.65,0.67-5.13,4.8c-15.29,14.06-22.19,19.58-29.19,21.53c-8.15,2.27-46.33,5.99-46.33,5.99
		s-11.04,7.02-18.21,12.64c-12.85,10.07-21.21,24.26-24.16,30.2c-5.14,10.37-4.37,26.64-4.37,26.64s-5.06,11.62-12.49,24.34
		c-6.67,11.42-20.02,31.29-22.07,38.74c-3.68,13.35-4.62,16.52-4.51,22.88c0.11,5.87,3.09,16.08,2.94,20.91
		c-0.24,7.88-6.45,6.85-7.64,10.78c-0.56,1.85,1.24,5.89,1.24,5.89s7.36,0.06,8.28,3.45c1.3,4.79-1.97,8.77-6.14,11.2
		c-3.79,2.21-7.84,3.53-7.84,3.53s-3.72,8.59-1.16,11.18c2.56,2.58,9.34,0.43,14.12-0.79c1.37-0.35-10.09,11.37-10.09,11.37
		s0.52,2.68,1.95,8.28c2.1,8.24,1.91,9.39,0.74,12.47c-1.83,4.82-5.98,4.12-8.16,9.31c-1.93,4.58-0.96,10.5,1.58,11.66
		c1.67,0.76,2.78-1.11,5.3-0.74c3.87,0.57,6.44,5.76,7.28,9.3c1.29,5.47-0.3,12.33-3.26,13.05c-2.31,0.56-3.5-3.08-6.45-2.93
		c-4.14,0.21-8.64,7.74-7.7,14.64c0.5,3.65,2.93,10.08,7.73,10.27c4.38,0.18,8.64-4.91,8.05-8.33c-0.55-3.22-5.19-3.72-5.12-6.26
		c0.07-2.67,5.33-5.61,7.59-4.23c0.73,0.45,1.28,1.43,1.1,8.06c-0.25,9.11-1.39,11.34,0.06,14.98c1.17,2.94,3.84,6.31,5.72,5.89
		c3.88-0.87,3.32-17.63,4.41-17.63c0.85,0.01-0.45,10.13,4.91,13.77c2.2,1.49,4.86,1.45,8.36,1.4c6.39-0.1,10.39-2.16,10.75-1.44
		c0.59,1.19-11.81,6.66-10.13,9.87c3.11,5.93,16.96,1.33,16.96,1.33c-3.47,7.75-8.57,22.76-8.55,30.03
		c0.03,10.65,7.28,15.62,12.3,18.61c12.1,7.21,55.66-0.51,67.23-3.61c27.47-7.36,60.01-39.07,65.47-44.3
		c2.95-2.83,43.83-53.59,43.83-53.59c3.42-4.1,2.86-4.62,2.1-7.9c-0.91-3.92-6.57-8.75-10.54-10.32c-2.58-1.02-2.76,4.75-4.49,8.71
		c-3.13,7.19-4.46,8.91-8.88,14.36c-2.27,2.8-4.36,4.42-7.16,6.58c-7.17,5.52-11.85,6.98-22.69,12.64
		c-8.09,4.22-5.83,3.59-13.35,7.48c-12.45,6.44-19.47,8.61-20.38,13.89c-0.25,1.44-0.06,3.64-1.2,7.1
		c-0.51,1.56-1.07,3.21-2.47,4.92c-0.88,1.07-1.85,2.27-3.29,2.71c-1.63,0.5-3-0.24-7.65-3.01c-6.06-3.6-7.59-4.63-10.53-5.99
		c-1.18-0.54-2.72-1.24-4.84-1.94c-6.46-2.12-8.1-0.85-11.77-2.88c-1.3-0.72-4.69-2.59-5.42-6.18c-0.59-2.94,0.91-5.48,1.36-6.16
		c0.24-0.37,1.42-2.14,3.74-3.28c4.3-2.12,9.07-0.39,11.68,0.55c5.2,1.88,4.39,3.48,8.34,4.2c1.96,0.35,2.69,0.05,9.78,0.46
		c2.54,0.14,2.33,0.17,2.68,0.17c4.75-0.12,7.01-4.83,13.33-11.59c2.03-2.17,6.21-6.4,13.44-14.12c0.38-0.41,2.57-3,4.27-4.63
		c5.21-4.99,13.2-12.3,16.56-15.11c4.22-3.54,11.33-10.67,13.53-12.33c4.35-3.28,5.83-7.63,7.19-10.46
		c1.14-2.38,3.31-5.49,5.03-6.41c0.41-0.22,2.04-1.1,2.01-2.26c-0.02-0.83-1.48-3.67-1.38-4.4c0.13-0.97,2.23-2.07,3.39-2.6
		c2.15-0.97,1.1-0.99,5.73-3.89c2.48-1.56,5.14-3.02,6.42-3.74c2.92-1.62,6.13-5.41,5.32-6.7c-1.95-3.1-7.59-0.3-8.12-0.15
		c-6.66,1.84-14.24,4.32-16.26,2.56c-0.64-0.56-4.67-4.49-7.03-7.44c-3.07-3.85-4.61-5.77-5.59-8.45c-1.03-2.81-2.01-5.49-1.88-8.41
		c0.03-0.66,0.18-2.65-1.05-4.18c-0.12-0.14-0.46-0.62-0.97-0.88c-1.74-0.88-4.25,0.68-6.56,1.48c-2.84,0.98-8.96,1.86-11.48,3.49
		c-2.24,1.45-5.43,6.2-6.02,8.8c-2.01,8.97,2.25,22.85,8.67,35.73c4.15,8.33,12.98,21.47,12.32,25.24c-0.31,1.75-3.42,2.95-5.8,5.11
		c-5.9,5.36-7.87,7.11-10.28,9.23c-2.41,2.12-5.82,7.58-7.31,4.68c-0.12-0.24-2.15-4.31-2.47-6.02c-0.34-1.8-0.71-3.76,0.25-5.41
		c0.61-1.04,1.52-1.57,2.36-2c3.59-1.86,7.13-2.62,9.35-3.04c4.06-0.77,7.41-1.1,10.2-1.37c1.36-0.13,1.43-0.32,1.91-0.95
		c1.07-1.39-0.37-5.98-2.37-6.35c-8.79-1.63-47.1,10.76-57.17,14.47c-7.02,2.59-29.98,15.52-30.39,15.79
		c-15.6,10.64-23.02,19.22-34.44,36.1c-7.51,11.1-9.69,15.31-13.15,25.24c-0.7,2-6.96,15.92,2.83,24.18
		c3.32,2.8,13.46,8.14,36.02,5.24c21.32-2.74,36.05-3.71,53.06-13.33c11.13-6.29,20.55-11.79,36.23-27.4l12.9-12.76
		c0,0,17.53-17.06,25.73-20.06c12.04-4.41,52.24-2.48,52.24-2.48c-1.41-0.78-2.5-1.33-3.28-1.72c-5.23-2.42-10.85-3.67-16.16-3.67
		c-11.87,0-21.39,8.27-21.39,18.66c0,6.01,2.58,10.38,7.49,12.8c1.87,1.01,3.83,1.64,7.42,2.34c3.43,0.78,4.92,1.87,4.92,3.67
		c0,1.87-1.72,3.04-4.37,3.04c-4.92,0-9.91-2.34-13.04-6.17l-7.03,14.05c2.11,1.17,3.75,1.95,4.84,2.5
		c5.07,2.34,10.93,3.75,15.77,3.75c12.57,0,22.72-8.51,22.72-18.97c0-4.76-2.19-9.29-5.7-11.63c-1.87-1.33-4.84-2.5-8.43-3.44
		c-4.76-1.17-5.7-1.72-5.7-3.36c0-1.56,1.56-2.73,3.59-2.73c4.06,0,8.12,1.72,11.4,4.68l30.94-0.2c0.51-2.57,3.01-22.59,3.01-22.59
		h-18.03l-7.03,56.91h18.03l2.03-17.02c0.55-4.45,1.41-5.78,3.75-5.78c1.56,0,2.34,0.94,2.34,2.73c0,0.47-0.08,1.41-0.23,2.42
		l-2.19,17.64h18.11l2.65-21.94c0.23-1.56,0.31-2.89,0.31-4.14c0-6.56-5-11.63-11.48-11.63c-4.84,0-6.81,2.49-9.54,7.25l29.47-0.11
		c-2.74,3.31-4.31,7.48-4.31,12.14c0,11.24,9.6,19.44,22.79,19.44c12.88,0,23.14-8.6,22.64-20.06
		c-0.68-15.53-19.79-21.15-34.39-15.27c0,0,13.86,4.98,18.38,12.41c0.6,0.99,0.84,2.2,0.84,3.44c0,4.12-3.34,7.45-7.45,7.45
		s-7.45-3.34-7.45-7.45c0-4.12,3.34-7.45,7.45-7.45h45.95c1.02-2.58,1.96-7.5,2.51-10.54h-18.11l-4.45,36.46h18.03l2.11-17.02
		c0.55-4.53,1.33-5.78,3.75-5.78c1.56,0,2.34,0.94,2.34,2.73c0,0.47-0.08,1.41-0.23,2.42l-2.19,17.64h18.11l2.5-20.37
		c0.23-2.19,0.39-3.98,0.39-5.54c0-6.79-5.07-11.87-11.94-11.87c-4.68,0-5.13-0.92-8.29,5.15c-0.34,0.66-1.14,2.74-1.14,2.74h55.34
		l-1.56-3.23c-2.05-3.25-4.94-4.57-9.45-4.57c-9.68,0-18.27,10.15-18.27,21.7c0,9.21,7.03,17.02,15.22,17.02
		c4.84,0,8.12-2.26,11.24-7.73l0.55,0.23c-1.17,3.36-1.41,3.98-1.95,6.48h17.88l4.53-34.32h7.18l-4.45,34.32h18.03l2.11-17.02
		c0.55-4.53,1.33-5.78,3.75-5.78c1.56,0,2.34,0.94,2.34,2.73c0,0.47-0.08,1.41-0.23,2.42l-2.19,17.64h18.11l2.5-20.37
		c0.23-2.19,0.39-3.98,0.39-5.54c0-6.79-5.07-11.87-11.94-11.87c-4.68,0-7.81,2.19-11.48,7.96l-0.62-0.16
		c1.02-2.58,1.25-3.43,1.8-6.48c0,0-8.07,0.31-10.74,0c-7.15-0.82-19.67-5.88-26.6-7.86l-57.82-20.03
		c-61.81-19.93-72.4-22.8-87.21-18.21c-7.26,2.25-14.36,6.35-26.98,7c-7.53,0.39-11.55-0.04-20.48,2.97
		c-4.22,1.42-20.94,7.46-26.09,9.31c-3.78,1.36-6.36,1.77-6.36,0.24c0-2.14,2.74-3.86,5.67-7.6l2.92-3.76l26.34-22.22
		c5.74-6.58,10.1-12.17,18.48-15.95c1.62-0.73,7.61-3.37,9.53-1.3c1.7,1.83-1.39,5.58-1.43,13.33c-0.02,3.59-0.04,7.49,2.31,9.18
		c3.35,2.41,9.8-0.9,13.35-3.63c3.45-2.66,5.8-6.05,9.36-14.49c7.19-17.07,5.71-22.56,10.69-24.85c1.62-0.74,6.66,0.2,16.76,2.07
		c2.09,0.39,4.18,0.82,5.32,2.54c1.5,2.27,0.7,5.82-0.76,8.18c-3.36,5.43-9.47,3.38-12.14,8.08c-1.94,3.43-1.08,8.72,2.01,11.83
		c3.52,3.54,8.59,2.91,9.97,2.67c3.37-0.59,5.3-2.41,7.95-4.5c6.75-5.31,11.76-9.25,17.36-9.81c7.47-0.74,13.44,4.79,18.14,9.14
		c1.55,1.43,11.91,11.03,9.19,17.19c-1.18,2.67-4.35,3.63-4.69,3.73c-2.93,0.85-6.75-0.02-7.99-2.3c-1.05-1.93,0.57-3.36-0.53-5.4
		c-0.91-1.7-2.91-2.04-5.69-3.01c-1.63-0.57-7.63-2.66-9.4-0.51c-1.75,2.12,0.7,8.31,5,11.03c2.52,1.59,7.05,1.78,9.98,2.04
		c0.41,0.03,0.33,0.02,0.99,0.08c3.53,0.29,5.94,0.48,8.59,1.21c0.99,0.27,1.77,0.49,2.82,0.93c4.42,1.85,5.17,4.17,6.75,3.99
		c2.24-0.25,4.29-5.32,4.27-10.21c-0.02-7.47-4.82-10.87-3.09-13.54c1.94-3,8.52,0.54,11.96-3.05c3.28-3.41-0.37-9,2.55-11.41
		c3.26-2.68,12.29,0.56,13.36,5.13c0.87,3.71-3.86,6.76-2.72,8.61c1.62,2.63,11.3-3.37,15.94,0.44c2.65,2.17,0.61,5.04,3.05,12.59
		c2.5,7.73,6.31,9.86,5,12.71c-1.26,2.73-6.33,4.2-9.56,2.62c-4.47-2.2-3.11-9.14-7.19-10.49c-2.48-0.82-5.98,0.75-6.51,2.76
		c-0.4,1.51-0.77,5.75,11.66,12.44c7.22,3.89,12.43,11.52,16.92,14.95c4.28,3.27,14.94,7.29,19.9,8.24
		c5.82,1.12,19.89,4.91,28.86-3.24c3.04-2.76,5.11-4.95,7.74-5.48c5.69-1.14,8.42,6.54,15.78,9.03c11.69,3.94,20.05-6.92,26.28-3.63
		c27.54,14.5,46,85.52,10.8,101.96c-2.08,0.97-14.46,1.08-14.46,1.08l3.71-30.37l-3.22,0.16c2.96-1.55,4.87-4.31,4.87-7.51
		c0-4.53-4.61-8.51-10.07-8.51c-5.54,0-10.3,4.22-10.3,8.98c0,2.12,0.9,4.04,2.4,5.5c0.63,0.61,1.36,1.14,2.18,1.58l-3.89-0.19
		l-3.71,30.37c-7.41,0.35-17.44,0.33-32.69,0.18l0.33-2.52c0.08-0.86,0.16-1.87,0.16-3.04c0-1.56-0.08-2.42-0.23-4.45l0.7-0.08
		c0.7,3.28,1.33,5,3.12,8.9l3.28,7.1h19.98l-10.46-17.64l15.69-18.81H556.8l-4.45,6.56c-2.81,4.14-3.59,5.46-4.76,8.51l-0.55-0.08
		c0.86-4.45,1.87-10.54,2.26-13.66l2.65-21.78h-18.03l-6.28,50.89c-7.29-0.07-15.23-0.17-23.93-0.27l-1.95,6.29h17.88l4.53-36.46
		h-17.95v0.78c0,2.03,0.08,2.97,0.39,5.54l-0.62,0.23c-2.11-5.62-5.23-7.81-11.01-7.81c-9.68,0-18.27,10.15-18.27,21.7
		c0,2.88,0.69,5.62,1.88,8.03l0.95,1.68c-2.88-0.03-5.78-0.06-8.71-0.1l0.81-1.37c0.65-1.47,1-3.09,1-4.82c0-5-3.28-8.82-8.74-9.99
		l-3.28-0.78c-1.48-0.31-2.11-0.86-2.11-2.03c0-1.25,1.09-1.87,3.12-1.87c2.81,0,5.78,1.09,8.43,3.04l4.45-11.01
		c-5.78-2.26-10.54-3.28-15.46-3.28c-9.91,0-17.17,5.85-17.17,13.82c0,5.23,2.58,7.81,9.91,9.52c3.04,0.7,4.06,1.48,4.06,2.81
		c0,1.25-1.09,1.95-2.89,1.95c-3.2,0-6.79-1.25-10.69-3.83l-3.11,7.82c-8.02-0.08-15.71-0.16-22.89-0.21l-1.95,6.59h17.88
		l4.53-36.46h-17.95v0.78c0,2.03,0.08,2.97,0.39,5.54l-0.62,0.23c-2.11-5.62-5.23-7.81-11.01-7.81c-9.68,0-18.27,10.15-18.27,21.7
		c0,2.74,0.21,4.78,1.43,7.04c0.35,0.64,1.52,2.48,1.52,2.48c-10.52-0.07-20.17-0.27-26.53-0.34c0,0-1.33,6.43-2.19,8.15
		c-1.48,2.73-4.84,4.45-8.67,4.45c-3.9,0-7.1-1.09-11.71-3.9l-4.84,11.87c1.02,0.47,1.8,0.78,2.34,0.94
		c5.07,1.95,11.55,3.2,16.63,3.2c6.71,0,12.8-1.87,17.25-5.31c4.61-3.44,6.56-7.57,7.57-16.16l4.06-32.87h-17.8l0.08,1.25l0.08,2.65
		l0.16,2.11l-0.55,0.16c-1.87-5.15-5.31-7.42-10.77-7.42c-9.99,0-17.88,9.13-17.88,20.69c0,2.83,0.28,4.81,1.22,7.1l1.26,3.09
		c-6.04-0.07-9.44-0.12-9.44-0.12l3.6-29.52h-2.34l1.62-1.68c1.49-1.53,2.37-3.5,2.37-5.66c0-4.53-4.61-8.51-10.07-8.51
		c-5.54,0-10.3,4.22-10.3,8.98c0,2.19,1.14,3.93,2.55,5.64l1.06,1.24h-2.91l-4.06,33.26c-8.87,0.24-18.34,0.53-31.34,0.87
		l1.68-14.69c0.55-4.45,1.41-5.78,3.75-5.78c1.56,0,2.34,0.94,2.34,2.73c0,0.47-0.08,1.41-0.23,2.42l-1.65,13.35l18.15-0.46
		l2.08-17.18c0.23-1.56,0.31-2.89,0.31-4.14c0-6.56-5-11.63-11.48-11.63c-4.84,0-8.82,2.5-11.55,7.26l-0.7-0.23
		c0.86-2.81,1.41-5.23,1.95-9.76l2.03-16.47h-18.03l-7.03,55.7l-6.17,0.19l2.26-18.97c-3.2,3.04-6.32,4.45-10.23,4.45
		c-5.7,0-10.07-4.06-10.07-9.37c0-6.25,5.23-11.55,11.48-11.55c3.67,0,6.87,1.25,10.38,4.06l1.56-18.5
		c-4.53-1.64-8.98-2.42-13.51-2.42c-16.47,0-28.73,12.26-28.73,28.81c0,9.19,4.01,16.87,10.46,21.41l2.42,1.98
		c-112.54,2.34-205.1-1.79-217.62-62.16c-2.62-12.65,6.69-25.21,14.63-33.71"/>
</g>
</svg>
