<?xml version="1.0" encoding="utf-8"?>
<!-- Generator: Adobe Illustrator 28.0.0, SVG Export Plug-In . SVG Version: 6.00 Build 0)  -->
<svg version="1.1" id="レイヤー_1" xmlns="http://www.w3.org/2000/svg" xmlns:xlink="http://www.w3.org/1999/xlink" x="0px"
	 y="0px" viewBox="0 0 30 30" style="enable-background:new 0 0 30 30;" xml:space="preserve">
<style type="text/css">
	<!-- .st0{fill:#FFFFFF;} -->
	.st0{fill:#24b5f5;}
</style>
<path class="st0" d="M27.2,4.2H2.8C1.2,4.2,0,5.5,0,7v16c0,1.5,1.2,2.8,2.8,2.8h24.4c1.5,0,2.8-1.2,2.8-2.8V7
	C30,5.5,28.8,4.2,27.2,4.2z M25.8,11.7l-7.7,3.9c-1,0.5-2.1,0.8-3.2,0.8c-1.1,0-2.1-0.2-3.1-0.7l-7.9-4c-0.4-0.2-0.6-0.7-0.4-1.1
	c0.2-0.4,0.7-0.6,1.1-0.4l7.9,3.9c1.5,0.8,3.3,0.7,4.8,0l7.7-3.9c0.4-0.2,0.9,0,1.1,0.4C26.4,11,26.2,11.5,25.8,11.7z"/>
</svg>
