<?xml version="1.0" encoding="UTF-8"?><svg id="_レイヤー_2" xmlns="http://www.w3.org/2000/svg" viewBox="0 0 37.08 37.09"><defs><style>.cls-1{fill:#0a3f70;stroke-width:0px;}</style></defs><g id="_レイヤー_1-2"><path class="cls-1" d="m37.08,2.87v31.35c0,1.59-1.28,2.87-2.87,2.87h-8.85v-13.88c0-.29-.02-.26.26-.26h4.19q.18,0,.21-.17c.26-1.75.54-3.51.8-5.26.05-.31.04-.31-.26-.31h-5q-.19,0-.2-.19v-3.49c0-.27.02-.55.07-.81.21-1.12.84-1.86,1.95-2.18.41-.12.85-.16,1.28-.16h2.23c.22,0,.21.02.21-.21v-4.56c0-.08-.02-.12-.12-.13-.23-.03-.46-.07-.69-.1-1-.13-2-.22-3.01-.26-.86-.03-1.72,0-2.56.18-1.01.2-1.94.57-2.78,1.18-1.18.86-1.94,2.02-2.37,3.4-.31.98-.41,1.98-.41,3,0,1.38,0,2.76,0,4.13,0,.21,0,.19-.19.19h-4.75c-.07,0-.11.03-.11.11,0,.03,0,.07,0,.12v5.29c0,.24-.02.23.23.23h4.56c.28,0,.26-.03.26.26v13.88H2.87c-1.59,0-2.87-1.29-2.87-2.87V2.87C0,1.29,1.28,0,2.87,0h31.35c1.59,0,2.87,1.29,2.87,2.87Z"/></g></svg>