<?xml version="1.0" encoding="utf-8"?>
<!-- Generator: Adobe Illustrator 28.0.0, SVG Export Plug-In . SVG Version: 6.00 Build 0)  -->
<svg version="1.1" id="レイヤー_1" xmlns="http://www.w3.org/2000/svg" xmlns:xlink="http://www.w3.org/1999/xlink" x="0px"
	 y="0px" viewBox="0 0 40 40" style="enable-background:new 0 0 40 40;" xml:space="preserve">
<style type="text/css">
	<!-- .st0{fill:#FFFFFF;} -->
	.st0{fill:#24b5f5;}
</style>
<g>
	<g>
		<path class="st0" d="M9.7,22.3c1.9,0,3.8,0,5.7,0c0.4,0,0.3,0,0.3,0.3c0,5.5,0,11.8,0,17.4h7.8c0-5.5,0-11.9,0-17.4
			c0-0.4,0-0.3,0.3-0.3c1.7,0,3.5,0,5.2,0c0.2,0,0.2,0,0.3-0.2c0.3-2.2,0.7-4.4,1-6.6c0.1-0.4,0.1-0.4-0.3-0.4c-2.1,0-4.2,0-6.3,0
			c-0.2,0-0.2,0-0.2-0.2c0,0,0,0,0,0c0-1.4,0-2.9,0-4.3c0-0.3,0-0.7,0.1-1c0.3-1.4,1.1-2.3,2.4-2.7c0.5-0.2,1.1-0.2,1.6-0.2
			c0.9,0,1.9,0,2.8,0c0.3,0,0.3,0,0.3-0.3c0-1.9,0-3.7,0-5.6c0,0,0-0.1,0-0.1c0-0.1,0-0.2-0.1-0.2c-0.3,0-0.6-0.1-0.9-0.1
			c-1.3-0.2-2.5-0.3-3.8-0.3c-1.1,0-2.1,0-3.2,0.2c-1.3,0.3-2.4,0.7-3.5,1.5c-1.5,1.1-2.4,2.5-3,4.3c-0.4,1.2-0.5,2.5-0.5,3.8
			c0,1.7,0,3.4,0,5.2c0,0.3,0,0.2-0.2,0.2c-0.1,0-0.1,0-0.2,0c-1.9,0-3.7,0-5.6,0c-0.1,0-0.1,0-0.2,0c-0.1,0-0.1,0-0.1,0.1
			c0,0,0,0.1,0,0.1c0,2.2,0,4.4,0,6.6C9.4,22.3,9.3,22.3,9.7,22.3z"/>
	</g>
</g>
</svg>
