<?xml version="1.0" encoding="utf-8"?>
<!-- Generator: Adobe Illustrator 28.0.0, SVG Export Plug-In . SVG Version: 6.00 Build 0)  -->
<svg version="1.1" id="レイヤー_1" xmlns="http://www.w3.org/2000/svg" xmlns:xlink="http://www.w3.org/1999/xlink" x="0px"
	 y="0px" viewBox="0 0 30 30" style="enable-background:new 0 0 30 30;" xml:space="preserve">
<style type="text/css">
	.st0{fill:#FFFFFF;}
</style>
<g>
	<g>
		<path class="st0" d="M15,2.6C6.7,2.6,0,8.1,0,15s6.7,12.4,15,12.4c8.3,0,15-5.6,15-12.4S23.3,2.6,15,2.6z M7.1,17.4
			c-1.3,0-2.4-1.1-2.4-2.4s1.1-2.4,2.4-2.4c1.3,0,2.4,1.1,2.4,2.4S8.4,17.4,7.1,17.4z M15,17.4c-1.3,0-2.4-1.1-2.4-2.4
			s1.1-2.4,2.4-2.4c1.3,0,2.4,1.1,2.4,2.4S16.3,17.4,15,17.4z M22.9,17.4c-1.3,0-2.4-1.1-2.4-2.4s1.1-2.4,2.4-2.4
			c1.3,0,2.4,1.1,2.4,2.4S24.3,17.4,22.9,17.4z"/>
	</g>
</g>
</svg>
