<?xml version="1.0" encoding="utf-8"?>
<!-- Generator: Adobe Illustrator 28.0.0, SVG Export Plug-In . SVG Version: 6.00 Build 0)  -->
<svg version="1.1" id="レイヤー_1" xmlns="http://www.w3.org/2000/svg" xmlns:xlink="http://www.w3.org/1999/xlink" x="0px"
	 y="0px" viewBox="0 0 30 30" style="enable-background:new 0 0 30 30;" xml:space="preserve">
<style type="text/css">
	<!-- .st0{fill:#FFFFFF;} -->
	.st0{fill:#24b5f5;}
</style>
<g>
	<g>
		<g>
			<path class="st0" d="M29.9,9c0-1.2-0.2-2.4-0.6-3.5c-0.9-2.4-2.5-4.1-5-4.9c-1.2-0.4-2.5-0.5-3.7-0.6C16.9,0,13.1,0,9.4,0.1
				C8.2,0.1,7.1,0.2,6,0.5C3.5,1.2,1.8,2.8,0.8,5.2C0.5,6,0.3,6.8,0.2,7.7C0,8.9,0,10,0,11.2c0,2.2,0,4.5,0,6.7c0,0.4,0,0.7,0,1.1
				c0,0.9,0,1.7,0.1,2.6c0,0.5,0.1,0.9,0.1,1.3c0.3,1.7,0.9,3.3,2.2,4.6C3,28,3.6,28.5,4.3,28.8c1,0.5,2,0.8,3.1,1
				c0.5,0.1,1,0.1,1.6,0.1c0.7,0,1.3,0,2,0c3.4,0,6.9,0.1,10.3-0.1c1,0,2-0.2,3-0.5c0.9-0.3,1.7-0.7,2.4-1.2c1.6-1.2,2.5-2.7,3-4.6
				c0.3-1.2,0.3-2.3,0.4-3.5C30,16.4,30,12.7,29.9,9z M27.3,18.9c0,1,0,1.9-0.1,2.9c-0.1,1.1-0.4,2.2-1,3.2
				c-0.3,0.4-0.7,0.8-1.1,1.1c-0.6,0.5-1.3,0.8-2,0.9c-0.6,0.1-1.1,0.2-1.7,0.2c-3.7,0.2-7.4,0.1-11.1,0.1c-1,0-2,0-3-0.3
				c-1.2-0.3-2.3-0.8-3.1-1.8c-0.6-0.7-0.9-1.5-1.1-2.3c-0.2-0.8-0.2-1.7-0.3-2.5c0-1-0.1-2,0-3c0-2.6,0-5.3,0.1-7.9
				C2.8,8.6,2.8,7.8,3,7c0.5-1.8,1.5-3.1,3.3-3.7c0.8-0.3,1.7-0.4,2.6-0.4c3.7-0.1,7.4-0.1,11.1,0c0.8,0,1.6,0,2.4,0.2
				c1.5,0.3,2.8,0.9,3.7,2.2c0.5,0.8,0.8,1.6,0.9,2.5c0.2,1.7,0.2,3.3,0.2,5C27.3,14.7,27.3,16.8,27.3,18.9z"/>
			<path class="st0" d="M18.5,8.2c-1.8-0.9-3.7-1.1-5.7-0.5c-1.1,0.3-2.1,0.9-3,1.6c-0.5,0.4-0.9,0.9-1.2,1.4c-0.4,0.6-0.7,1.3-1,2
				c-0.5,1.5-0.5,3.1,0,4.6c0.3,0.9,0.7,1.6,1.2,2.3c0.3,0.4,0.7,0.8,1.2,1.2c0.5,0.4,1.1,0.8,1.7,1.1c0.9,0.4,1.9,0.7,2.9,0.7
				c0.7,0,1.4,0,2.1-0.2c0.9-0.2,1.8-0.6,2.6-1.1c0.7-0.5,1.4-1.1,1.9-1.8c1.2-1.7,1.7-3.6,1.4-5.6C22.2,11.3,20.8,9.4,18.5,8.2z
				 M17.5,19.3c-0.4,0.2-0.7,0.4-1.1,0.5c-2.1,0.6-4.4-0.2-5.6-2.1C9.6,16.1,9.7,13.6,11,12c1.3-1.7,3.1-2.3,5.1-1.8
				c2,0.5,3.3,1.8,3.8,3.9C20.4,16.1,19.4,18.3,17.5,19.3z"/>
			<path class="st0" d="M23,5.2c-1,0-1.8,0.8-1.8,1.8c0,1,0.8,1.8,1.8,1.8c1,0,1.8-0.8,1.8-1.8C24.8,6,24,5.2,23,5.2z"/>
		</g>
	</g>
</g>
</svg>
