<?xml version="1.0" encoding="UTF-8"?><svg id="_レイヤー_2" xmlns="http://www.w3.org/2000/svg" viewBox="0 0 64.44 261.83"><defs><style>.cls-1{fill:#e94e63;}.cls-1,.cls-2,.cls-3,.cls-4{stroke-width:0px;}.cls-2{fill:#c898b0;}.cls-3{fill:#143355;}.cls-4{fill:#fffdfd;}</style></defs><g id="_サーファー"><path class="cls-3" d="m21.06,246.78s.06-.12.08-.15c1.29-2,14.41-11.92,12.25-12.92-5.82-2.67-16.02,8.21-17,10.36-.04.08-.11.25-.21.46l4.89,2.25Z"/><path class="cls-3" d="m51.92,261.31s.06-.12.07-.15c1.23-2.04,14.05-12.34,11.86-13.27-5.89-2.5-15.77,8.69-16.69,10.86-.03.08-.11.25-.2.47l4.96,2.1Z"/><path class="cls-1" d="m55.56,126.53c.47,5.9-2.79,39.76-1.52,67.74,1.45,31.93-2.22,63.77-3.03,66.73-4.55,2.53-9.1-1.52-9.1-1.52,0,0-4.68-54.59-5.56-64.71-1.01-11.63-3.03-51.57-6.07-51.57s-7.13,66.22-6.57,53.59c.11-2.38-3,51.29-3.03,52.07l-10.62-2.53s-3.03-59.65-3.03-66.73,1.52-64.16,1.52-64.16l47.02,11.08Z"/><path class="cls-2" d="m25.96,45.96l8.05-2.9c-1.05-2.75-3.29-8.49-3.29-8.49l-7.39,2.49s1.25,5.81,2.53,8.71c.03.07.07.12.11.19Z"/><path class="cls-3" d="m10.66,49.35c3.2-3.72,10.95-7.11,17.69-7.93,11.23-1.38,21.43,1.87,23.26,4.86,2.76,4.53,9.77,67.52,7.08,71.09-3.28,4.34-47.9,13-48.03,10.2-.51-11.33-7.43-69.57,0-78.21Z"/><path class="cls-3" d="m49.92,46.14c8.43,4.72,14.47,39.1,14.49,42.8.06,8.3.63,31.56-7.46,38.13-2.29,1.86-2.31-34.08-2.31-34.08l-4.72-46.85Z"/><path class="cls-3" d="m12.17,48.17c-7.43,2.79-15.01,36.63-11.12,49.88.43.26,7.37,36.11,10.9,38.63,2.31,1.65,4.33-2.64,7.08-5.06,3.38-2.98-4.18-39.2-4.04-40.44,1.07-9.63,8.09-47.11-2.82-43.02Z"/><path class="cls-2" d="m24.18,2.91c-4.87,1-8.37,5.28-8.37,10.25v23.3c0,3.85,16.58,6.15,20.92-4.04V13.16c0-6.62-6.07-11.58-12.56-10.25h0Z"/><path class="cls-4" d="m36.95,26.45c.47-5.18-.14-11.11-4.1-13.98-3.79-2.75-17.68,3.05-17.68-1.33,0-3.03,1.09-7.8,3.37-9.1C21.52.34,28.35-.22,31.7.08c2.96.26,6.06,1.32,8.4,3.18,4.55,3.6,3.54,11.64,2.86,16.67-.68,4.96-2.34,10.83-6.56,13.79.36-1.53.37-5.34.55-7.27Z"/><path class="cls-2" d="m40.01,24.8c-.44,2.05-1.87,3.47-3.19,3.19-1.32-.29-2.03-2.18-1.59-4.22.44-2.05,1.87-3.47,3.19-3.19,1.32.29,2.03,2.18,1.59,4.22Z"/><polygon class="cls-4" points="20.9 42.99 24.91 59.5 38.59 41.57 35.05 40.63 25.63 45.6 20.9 42.99"/><polygon class="cls-4" points="38.59 41.13 34.38 38.27 26.58 44.9 23.43 40.63 20.73 42.65 22.16 49.22 26.35 46.52 34.04 50.23 38.59 41.13"/></g></svg>