<?xml version="1.0" encoding="UTF-8"?><svg id="_レイヤー_2" xmlns="http://www.w3.org/2000/svg" viewBox="0 0 55.16 210.84"><defs><style>.cls-1{fill:#143355;}.cls-1,.cls-2,.cls-3,.cls-4,.cls-5{stroke-width:0px;}.cls-2{fill:#d03a2b;}.cls-3{fill:#fff338;}.cls-4{fill:#24b5f5;}.cls-5{fill:#fffdfd;}</style></defs><g id="_レイヤー_1-2"><path class="cls-1" d="m18.68,22.98c.01.85.03,1.71.23,2.54.87,3.58,4.81,5.41,8.37,6.38,3.01.83,11.97,5.34,13.93,1.71,2.05-3.78-1.42-10.19-1.23-14.49.07-1.5,0-3.05-.56-4.44-.92-2.25-3.09-3.82-5.4-4.58-2.31-.77-4.79-.85-7.22-.92-1.9-.05-3.87-.08-5.63.64-2.37.97-3.03,2.52-2.78,4.79.31,2.76.24,5.57.29,8.36Z"/><path class="cls-5" d="m18.98,117.53l-5.31,27.62s-5.01,51.05-5.71,52.91c-.7,1.86-9.62,12.26-7.68,12.69,3.15.69,6.71-2.92,9.14-6.31v2.23l1.55-.14,1.31-7.55,9.08-52.14,9.27-29.91-11.64.6Z"/><path class="cls-1" d="m7.96,198.07c-.7,1.86-9.62,12.26-7.68,12.69,3.15.69,6.71-2.92,9.14-6.31v2.23l1.55-.14,1.31-7.55s-4.21,3.6-4.31-.92Z"/><path class="cls-5" d="m39.11,185.64l-5.78-58.96.31-23.17-10.89,4.15,2.75,19.77s8.68,49.11,8.59,51.09c-.09,1.98-5.38,14.63-3.41,14.44,3.09-.3,5.31-4.51,6.61-8.38l.34,1.53,1.48-.47Z"/><path class="cls-1" d="m39.11,185.64l-.71-7.22s-3.82,5.96-4.31.11c-.09,1.98-5.38,14.63-3.41,14.44,3.09-.3,5.31-4.51,6.61-8.38l.34,1.53,1.48-.47Z"/><path class="cls-4" d="m13.2,33.3c.03,1.41.58,6.13.21,7.3-.83,2.62-.42,16.52-1.47,18.05l-4.21,21.35,8.43.84,3.09-16.85c2.3-3.43.93-21.14-1.03-30.69h-5.01Z"/><path class="cls-5" d="m16.15,81.96c0,3.26-1.51,5.9-3.37,5.9-1.86,0-3.37-2.64-3.37-5.9s1.51-5.9,3.37-5.9,3.37,2.64,3.37,5.9Z"/><path class="cls-4" d="m38.85,65.68l3.38-23.94-26.16-8.3s-4.67,7.96-4.4,10.88c.5,5.35,1.52,11.98,2.07,17.96,7.93,1.71,16.84,4.18,25.11,3.39Z"/><path class="cls-4" d="m39.16,63.42c-8.27.79-17.5.58-25.43-1.13.2,2.17.34,4.25.37,6.16,7.41,4.49,16.08,6.76,24.84,6.53-.57-.86-.99-1.69-1.05-2.56l1.27-9Z"/><path class="cls-3" d="m42.69,81.06c-.84-2.52-3.49-8.04-4.63-9.77-8.75.23-16.54,1.64-23.95-2.84.03,1.67-.03,3.2-.2,4.53-.41,3.15-3.9,31.27-2.29,46.57.32.48,29.79,3.54,31.56,1.77-.16-.16.81-36.39-.48-40.25Z"/><path class="cls-4" d="m46.1,43.95s1.79-5.17-3.6-7.25c-12.6-4.87-25.79-7.4-27.47-6.13-.82.61-1.83,3.66-1.83,3.66,0,1.26,32.98,10.21,32.9,9.72Z"/><path class="cls-5" d="m19.61,5.85v19.86c0,3.02,13.82,4.82,17.44-3.17v-8.94l-17.44-7.74Z"/><path class="cls-1" d="m28.08.32c-5.28,1.28-10.81,4.4-11.37,7.77-1.03,6.18,1.26,8.57,2.9,8.57v-7.16c3.99,6.18,11.76,6,13.65,7.59,3.31,2.78,3.09,7.32.44,10.43-3.22,3.79-.89,6.46,3.5,7.51,2.84.68,4.06,1.53,5.14-1.6,1.46-4.21,1.07-9.96,1.24-14.4.18-4.86.1-9.95-2.92-14.03-2.86-3.86-7.87-5.82-12.58-4.68Z"/><path class="cls-5" d="m26.82,37.15h0c-1.41-.59-2.66-2.08-2.2-3.53.79-2.49.47-7.54.47-7.54l5.24.41s.56,5.2,1.45,7.35c.98,2.36-2.6,4.29-4.97,3.31Z"/><path class="cls-5" d="m38.44,21.51c-.37,1.71-1.56,2.9-2.66,2.66-1.1-.24-1.69-1.81-1.32-3.52.37-1.71,1.56-2.9,2.66-2.66,1.1.24,1.69,1.81,1.32,3.52Z"/><rect class="cls-2" x="32.89" y="89.01" width="21.63" height="12.59" transform="translate(-10.45 5.53) rotate(-6.46)"/><path class="cls-5" d="m47.89,97.13c0,3.26-1.51,5.9-3.37,5.9s-3.37-2.64-3.37-5.9,1.51-5.9,3.37-5.9,3.37,2.64,3.37,5.9Z"/><path class="cls-4" d="m45.97,42.08h-7.35l1.55,31.18-1.26,24.65,10.95,1.47c1.83.65-3.89-57.3-3.89-57.3Z"/></g></svg>