<?xml version="1.0" encoding="UTF-8"?><svg id="_レイヤー_2" xmlns="http://www.w3.org/2000/svg" viewBox="0 0 171.09 221.23"><defs><style>.cls-1{fill:#143355;}.cls-1,.cls-2,.cls-3,.cls-4,.cls-5{stroke-width:0px;}.cls-2{fill:#c6c6c6;}.cls-3{fill:#62c0c9;}.cls-4{fill:#fffdfd;}.cls-5{fill:#8c6239;}</style></defs><g id="_レイヤー_1-2"><path class="cls-2" d="m43.41,50.5l3.94,7.35,4.02,43.3,40.21,21.05v-.41s0,46.2,0,46.2c0,1.96-1.4,3.55-3.13,3.55s-3.13-1.59-3.13-3.55v-32.13c0-4.16-4.67-6.62-8.1-4.26l-16.26,11.2c-2.97,2.05-4.75,5.43-4.75,9.04v44.44c0,1.96-1.4,3.55-3.13,3.55-1.73,0-3.13-1.59-3.13-3.55v-43.96c0-3.9-2.06-7.5-5.42-9.47l-20.07-11.35c-4.32-2.53-9.75.58-9.75,5.58v34.62c0,1.89-1.4,3.42-3.13,3.42s-3.13-1.53-3.13-3.42v-53.15c0-.53.12-1.02.31-1.47l-3.28-31.41c-.6-5.62-3.12-13.93-5.08-19.79-1.28-3.83.81-7.97,4.65-9.22l29.73-9.66c3.35-1.09,6.99.38,8.66,3.48Z"/><path class="cls-4" d="m75.62,127.84l-18.2,12.71c-2.69,1.88-4.46,2.39-7.25.65l-27.5-17.19c-3.58-2.24-5.93-5.98-6.4-10.17l-4.26-38.1L3.4,57.45l32.04-10.61,12.02,55.72,35.47,19.01-7.31,6.27Z"/><path class="cls-3" d="m61,53.44c1.58,2.64,12.74,14.44,12.48,17.47.55,4.18,1.25,12.34-8.12,7.55l-11.39-7.18,7.03-17.84"/><path class="cls-3" d="m17.02,93.07c-2.22-11.27-.92-36.61-1.12-37.8-.78-4.49,2.85-7.4,4.82-8.14,12.58-4.72,31.36-14.94,34.53-10.98,1.74,2.18,2.24,8.48,2.37,10.85,1.58,2.64,12.74,14.44,12.48,17.47.55,4.18-8.78,6.79-8.12,7.55,0,0,.8,6.24.51,7.41-.3,1.22-3.11,2.76-3.11,2.76.08,1.94.11,1.63.5,3.37.88,3.85-28.98,9.88-29.07,6.58l-2.4-10-1.15,6.37s-9.68,7.29-10.21,4.57Z"/><polygon class="cls-1" points="49.58 41.08 40.23 36.61 28.38 47.43 23.33 20.88 49.58 24.91 49.58 41.08"/><path class="cls-4" d="m40.6,46.28h0c1.71-.91,3.11-2.94,2.36-4.72-1.3-3.05-1.49-9.47-1.49-9.47l-6.56,1.14s-.1,6.63-.97,9.45c-.96,3.1,3.8,5.11,6.66,3.59Z"/><path class="cls-4" d="m46.91,26.69c-.56-8.62-1.64-17.49-1.64-17.49l-19.65,11.63,1.05,11.21c3.26,6.01,10.76,6.79,15.84,5.6,0,0,4.96-2.32,4.4-10.95Z"/><path class="cls-1" d="m34.35.14c6.37.92,11.72,2.36,14.28,8.08,3.96,8.81,2.69,18.12,3.54,27.44.39,4.34-.89,8.81-3.53,12.29,1.32-1.68-.95-11.51-1.03-13.86-.11-3.15-.53-5.71-.83-8.9-.45-4.78-.89-9.55-1.34-14.33-4.02,7.73-12.95,11.02-15.01,13.11-3.21,3.25-1.89,11.81-1.19,15.94.97,5.66,3.12,11.13,6.34,15.89-3.36-.9-6.51-2.75-8.7-5.45-6.91-8.53-7.25-19.71-8.9-30.01-1.27-7.94,1.58-16.7,9.74-19.53,2.12-.74,4.41-.97,6.64-.65Z"/><path class="cls-4" d="m24.81,29.75c.62,1.97,2.16,3.24,3.43,2.84,1.27-.4,1.79-2.32,1.17-4.3-.62-1.97-2.16-3.24-3.43-2.84-1.27.4-1.79,2.32-1.17,4.3Z"/><path class="cls-1" d="m29.72,119.24l5.33-13.32,17.71,6c.81,3.79,1.69,11.55,2.1,15.7l-25.14-8.38Z"/><path class="cls-1" d="m86.7,124.59s.71-1.66,1.32,10.99c.88,18.19,9.25,60.19,9.66,61.61.7,2.42,10.96,16.45,8.46,16.8-6.7.94-13.71-13.19-14.06-15.65-.21-1.53-16-64.86-16-64.86l-26.24-3.73c-.41-4.15,2.13-15.77,3.71-18.64l6.05,2.14s15.3,6.7,27.09,11.34Z"/><path class="cls-1" d="m99.47,115.29s.71-1.66,1.32,10.99c.88,18.19-12.94,62.93-12.53,64.35.7,2.42,10.96,16.45,8.46,16.8-6.7.94-13.71-13.19-14.06-15.65-.21-1.53,6.19-67.6,6.19-67.6-10.76-3.12-34.88-10.77-34.88-10.77-.41-4.15,14.45-10.76,16.03-13.64l6.05,2.14s11.62,8.74,23.41,13.38Z"/><path class="cls-3" d="m26.55,101.71c1.59-4.77,3.39-12.25,3.61-15.6l27.66-3.92c0,1.68.08,3.25.25,4.63.21,1.62,3.08,7.09,3.08,7.09,0,0,19.61,7.27,25.8,12.01-9.84,4.25-12.08,5.6-22.34,12-2.34,3.75-3.87,8.44-3.87,14.21.2-.2-42.56-2.62-34.18-30.43Z"/><path class="cls-4" d="m67.95,109.11c-3.74-1.75-7.58-1.44-8.59.69-1,2.14,1.22,5.29,4.96,7.05,3.74,1.75,7.58,1.44,8.59-.69,1-2.14-1.22-5.29-4.96-7.05Z"/><path class="cls-1" d="m33.62,90.79c.52-.23,1.03-.46,1.55-.71.39,1.71.63,3.5.72,5.19.08,1.6-1.46,2.66-1.54,1.05-.08-1.66-.32-3.64-.73-5.53Z"/><path class="cls-4" d="m29.71,89.58l33.72,19.45-3.47,4.17s-35.1-13.99-38.06-21.11c-.75-1.82,2.2-4.92,2.2-4.92l5.6,2.41Z"/><path class="cls-4" d="m72.57,62.44l-4.05-11.68-4.4,4.09s1.91,30.35,11.05,24.27c1.36-.91.82-8.62.82-8.62l-3.42-8.06Z"/><path class="cls-3" d="m26.05,56.78s6.87,24.21,5.08,31.89c-.63,2.72-12.43,13.16-14.1,5.26-1.98-9.36-1.27-29.36-1.14-36.19l10.16-.95Z"/><path class="cls-1" d="m15.49,97.13c1.35-5.35,32.19,6.2,31.97,9.89-.3,4.92-2.7,2.55-4.08,3.58-2.12,1.59,3.84,12.2-2.1,17.99-5.55,5.42-32.8-3.65-32.91-12.12-.1-7.78,7.63-11.76,8.5-16.16.31-1.56-1.89-1.19-1.39-3.17Z"/><path class="cls-1" d="m21.48,109.14c.62-7.23,4.1-17.22,8.92-19.36,1.7-.76,3.16-.27,4.36.95l-2.14.86c-.24-.07-.49-.12-.75-.11-4.63.19-8.25,10.51-8.83,17.27-.15,1.69-1.7,2.09-1.55.39Z"/><path class="cls-2" d="m116.78,221.23c1.73,0,3.13-1.4,3.13-3.13v-73.42c0-1.73-1.4-3.13-3.13-3.13-1.73,0-3.13,1.4-3.13,3.13v73.42c0,1.73,1.4,3.13,3.13,3.13Z"/><path class="cls-2" d="m63.38,113.78c-5.92,20.57,17.4,40.92,53.4,40.92,35.99,0,59.32-20.35,53.4-40.92-4.84-16.84-28.42-28.4-53.4-28.4-24.98,0-48.55,11.56-53.4,28.4Z"/><path class="cls-4" d="m63.38,110.92c-5.92,19.2,17.4,38.19,53.4,38.19,35.99,0,59.32-18.99,53.4-38.19-4.84-15.71-28.42-26.5-53.4-26.5s-48.55,10.79-53.4,26.5Z"/><rect class="cls-4" x="52.63" y="36.42" width="10.93" height="19.67" rx="4.36" ry="4.36" transform="translate(116.19 92.51) rotate(-180)"/><path class="cls-4" d="m68.34,44.88l-4.47-2.98-1.96,3.92-.21,2.82c-.19.43.51,1.31.67,1.75l.62,4.34c.7,2.09,3.35,2.73,4.92,1.19l1.28-2.05c.41-.4.62-.97.56-1.55l-.42-4.35c-.04-.39-1-3.1-1-3.1Z"/><ellipse class="cls-5" cx="58.49" cy="40.18" rx="4.6" ry="1.86"/></g></svg>