<?xml version="1.0" encoding="utf-8"?>
<!-- Generator: Adobe Illustrator 27.7.0, SVG Export Plug-In . SVG Version: 6.00 Build 0)  -->
<svg version="1.1" id="レイヤー_1" xmlns="http://www.w3.org/2000/svg" xmlns:xlink="http://www.w3.org/1999/xlink" x="0px"
	 y="0px" viewBox="0 0 200 200" style="enable-background:new 0 0 200 200;" xml:space="preserve">
<style type="text/css">
	.st0{fill:#000000;stroke:#000000;stroke-miterlimit:10;}
	.st1{fill:#000000;stroke:#000000;stroke-width:5;stroke-linecap:round;stroke-miterlimit:10;}
</style>
<g>
	<g>
		<path class="st0" d="M68.4,199.5c-5.2,1.8-10.9-1.1-12.6-6.3l-13.3-39.5l-9.7,3.3c-3.8,1.3-8.1,0.2-10.8-2.8
			c-2.7-3-3.4-7.4-1.8-11.1l42.4-86.6c1.1-2.4,3.3-4.4,6-5.3c2.7-0.9,5.7-0.7,8.2,0.7L94.9,61c0.8-3.2,3.1-6,6.5-7.2l13.7-4.6
			c5.2-1.8,10.9,1.1,12.6,6.3l8.9,26.7l25.7,13c3.7,2,5.8,5.9,5.4,10c-0.4,4-3.1,7.5-6.9,8.8l-9.7,3.3l13.3,39.5
			c1.8,5.2-1.1,10.9-6.3,12.6L68.4,199.5z M104.4,175.4l48.9-16.4l-16.4-49l17.9-6l-27.4-13.8l-10-29.8l-11.1,3.7l6.2,18.5
			L72.4,62.3l-40.6,83l17.9-6l16.4,49l5.2-1.7L104.4,175.4z"/>
	</g>
	<g>
		<line class="st1" x1="124.7" y1="12.4" x2="120.9" y2="34.3"/>
		<line class="st1" x1="108.7" y1="18.5" x2="110.1" y2="33.9"/>
		<line class="st1" x1="81.1" y1="28.6" x2="89.9" y2="41.2"/>
		<line class="st1" x1="160.4" y1="42.5" x2="147.7" y2="51.4"/>
		<line class="st1" x1="137.8" y1="23.6" x2="131.3" y2="37.6"/>
		<line class="st1" x1="126.2" y1="4" x2="125.6" y2="7.6"/>
		<line class="st1" x1="91.9" y1="15.4" x2="99.5" y2="36.2"/>
		<line class="st1" x1="89" y1="7.3" x2="90.2" y2="10.7"/>
		<line class="st1" x1="64.9" y1="34.3" x2="81.9" y2="48.6"/>
		<line class="st1" x1="58.3" y1="28.8" x2="61.1" y2="31.1"/>
		<line class="st1" x1="173.6" y1="53.3" x2="152.8" y2="61"/>
		<line class="st1" x1="181.7" y1="50.4" x2="178.3" y2="51.6"/>
		<line class="st1" x1="154.7" y1="26.3" x2="140.4" y2="43.4"/>
		<line class="st1" x1="160.2" y1="19.8" x2="157.8" y2="22.5"/>
	</g>
</g>
</svg>
