<?xml version="1.0" encoding="UTF-8"?><svg id="_レイヤー_2" xmlns="http://www.w3.org/2000/svg" viewBox="0 0 58.15 201.67"><defs><style>.cls-1{fill:#e94e63;}.cls-1,.cls-2,.cls-3,.cls-4,.cls-5{stroke-width:0px;}.cls-2{fill:#65c2cb;}.cls-3{fill:#c898b0;}.cls-4{fill:#143355;}.cls-5{fill:#fffdf7;}</style></defs><g id="_サーファー"><path class="cls-4" d="m38.42,107.65v31.21s-5.69,46.61-4.43,55.89c.48,3.55,11.6.42,12.44,5.27-2.11,2.32-19.97,2.53-19.12-1.69.84-8.44,2.41-59.48,2.41-59.48l-5.09-35.99,13.78,4.78Z"/><path class="cls-4" d="m19.65,107.01l-2.12,21.97s-5.48,40.68-8.43,52.49c-1.05,4.19,12.02,12.23,8.89,17.22-5.76-2.84-13.44-8.77-15.01-12.37,3.59-8.65,5.86-57.81,5.86-57.81l-1.42-25.58,12.22,4.08Z"/><path class="cls-3" d="m38.77,9.09v14.95c0,4.88-12.23,13.1-16.53,6.93v-14.07l16.53-7.8Z"/><path class="cls-3" d="m25.79,38.32h0c1.41-.59,2.66-2.08,2.2-3.54-.79-2.5-.47-7.55-.47-7.55l-5.24.42s-.56,5.2-1.46,7.36c-.98,2.37,2.61,4.3,4.97,3.31Z"/><path class="cls-1" d="m6.66,92.42l31.76.37c4.46,5.34,7.06,16.75,6.01,19.29-1.41,3.42-38.78,4.19-39.87,1.95-1.68-3.45-1.59-11.35,2.1-21.6Z"/><path class="cls-2" d="m40.4,38.33c-4.94-5.63-25.49-7.04-29.92-1.02C2.14,48.62-.78,97.77.17,102.87c1.31,7,44.36,6.95,48.65-1.41,4.37-8.51-6-60.37-8.43-63.14Z"/><path class="cls-5" d="m28.72.51c-5.11-1.85-13.9,1.53-15.61,6.54-4.46,13.08,2.25,18.77,4.78,20.46,2.31,1.54,7.53,3.31,9.28,3.37,5.34-14.06,11.39-9.86,12.14-15.86.79-6.29-3-11.77-10.6-14.51Z"/><path class="cls-3" d="m32.45,22.47c.37,1.71,1.56,2.9,2.66,2.66,1.1-.24,1.69-1.82,1.32-3.52-.37-1.71-1.56-2.9-2.66-2.66-1.1.24-1.69,1.82-1.32,3.52Z"/><path class="cls-5" d="m21.41,11.65c-.05,4.26-1.66,6.08-2.89,9.2-1.31,3.32-2.44,7.22-2.8,11.26-.51,5.6.48,11.44-.37,16.91-.64,4.1-2.34,7.63-4.49,9.33,1.27-9.14-1.7-18.15-2.62-27.37-1-9.93-1.68-28.42,8.01-28.99,2.92-.17,5.22,4.36,5.16,9.66Z"/><path class="cls-3" d="m53.6,95.42c0,3.26-1.51,5.91-3.37,5.91s-3.37-2.64-3.37-5.91,1.51-5.91,3.37-5.91,3.37,2.64,3.37,5.91Z"/><path class="cls-2" d="m40.4,38.33c3.12,5.03,7.74,15.51,11.48,26.04,3.74,10.53,6.61,21.13,6.24,26.38-.54,4.78-12.43,7.6-15.63,6.71-3.2-.89-6.4-51.41-2.09-59.13Z"/></g></svg>